# AST/ASF file generated using VICON BodyLanguage
# -----------------------------------------------
:version 1.10
:name VICON
:units
  mass 1.0
  length 0.45
  angle deg
:documentation
   .ast/.asf automatically generated from VICON data using
   VICON BodyBuilder and BodyLanguage model FoxedUp or BRILLIANT.MOD
:root
   order TX TY TZ RX RY RZ
   axis XYZ
   position 0 0 0  
   orientation 0 0 0 
:bonedata
  begin
     id 1 
     name lhipjoint
     direction 0.722297 -0.617336 0.311742 
     length 2.6635 
     axis 0 0 0  XYZ
  end
  begin
     id 2 
     name lfemur
     direction 0.34202 -0.939693 0  
     length 7.39349  
     axis 0 0 20  XYZ
    dof rx ry rz
    limits (-160.0 20.0)
           (-70.0 70.0)
           (-60.0 70.0)
  end
  begin
     id 3 
     name ltibia
     direction 0.34202 -0.939693 0   
     length 7.36294   
     axis 0 0 20   XYZ
    dof rx
    limits (-10.0 170.0)
  end
  begin
     id 4 
     name lfoot
     direction 0.104879 -0.288152 0.951824   
     length 2.16981   
     axis -90 7.62852e-016 20   XYZ
    dof rx rz
    limits (-45.0 90.0)
           (-70.0 20.0)
  end
  begin
     id 5 
     name ltoes
     direction 1.53586e-011 -4.21895e-011 1   
     length 1.08218   
     axis -90 7.62852e-016 20   XYZ
    dof rx
    limits (-90.0 20.0)
  end
  begin
     id 6 
     name rhipjoint
     direction -0.75102 -0.589393 0.297631   
     length 2.78977  
     axis 0 0 0  XYZ 
  end
  begin
     id 7 
     name rfemur
     direction -0.34202 -0.939693 0   
     length 7.46076   
     axis 0 0 -20   XYZ
    dof rx ry rz
    limits (-160.0 20.0)
           (-70.0 70.0)
           (-70.0 60.0)
  end
  begin
     id 8 
     name rtibia
     direction -0.34202 -0.939693 0   
     length 7.31726   
     axis 0 0 -20   XYZ
    dof rx
    limits (-10.0 170.0)
 end
 begin
     id 9 
     name rfoot
     direction -0.107991 -0.296704 0.948844   
     length 2.09388  
     axis -90 -7.62852e-016 -20   XYZ
    dof rx rz
    limits (-45.0 90.0)
           (-20.0 70.0)
  end
  begin
     id 10 
     name rtoes
     direction -1.53559e-011 -4.21911e-011 1   
     length 1.04433   
     axis -90 -7.62852e-016 -20   XYZ
    dof rx
    limits (-90.0 20.0)
  end
  begin
     id 11 
     name lowerback
     direction 0.0165164 0.98272 0.184358   
     length 1.71896   
     axis 0 0 0   XYZ
    dof rx ry rz
    limits (-20.0 45.0)
           (-30.0 30.0)
           (-30.0 30.0)
  end
  begin
     id 12 
     name upperback
     direction -0.00887249 0.992297 0.123566   
     length 1.71504   
     axis 0 0 0   XYZ
    dof rx ry rz
    limits (-20.0 45.0)
           (-30.0 30.0)
           (-30.0 30.0)
  end
  begin
     id 13 
     name thorax
     direction -0.0157026 0.998908 0.0440032   
     length 1.77022   
     axis 0 0 0   XYZ
    dof rx ry rz
    limits (-20.0 45.0)
           (-30.0 30.0)
           (-30.0 30.0)
  end
  begin
     id 14 
     name lowerneck
     direction -0.0238856 0.998137 0.0561411   
     length 1.89341   
     axis 0 0 0   XYZ
    dof rx ry rz
    limits (-20.0 45.0)
           (-30.0 30.0)
           (-30.0 30.0)
  end
  begin
     id 15 
     name upperneck
     direction 0.0276574 0.952253 -0.304056   
     length 1.86999   
     axis 0 0 0   XYZ
    dof rx ry rz
    limits (-20.0 45.0)
           (-30.0 30.0)
           (-30.0 30.0)
  end
  begin
     id 16
     name head
     direction 0.00800083 0.994258 -0.106712  
     length 1.91492  
     axis 0 0 0   XYZ
    dof rx ry rz
    limits (-20.0 45.0)
           (-30.0 30.0)
           (-30.0 30.0)
  end
  begin
     id 17 
     name lclavicle
     direction 0.97203 0.225407 0.06595  
     length 3.34889  
     axis 0 0 0   XYZ
    dof ry rz
    limits (-20.0 10.0)
           (0.0 20.0)
  end
  begin
     id 18 
     name lhumerus
     direction 1 -4.48973e-011 2.20267e-027   
     length 4.85645   
     axis 180 -30 -90   XYZ
    dof rx ry rz
    limits (-60.0 90.0)
           (-90.0 90.0)
           (-90.0 90.0)
  end
  begin
     id 19
     name lradius
     direction 1 -4.4897e-011 4.60472e-027   
     length 2.79874   
     axis 180 -30 -90   XYZ
    dof rx
    limits (-10.0 170.0)
  end
  begin
     id 20
     name lwrist
     direction 1 -4.48952e-011 1.14928e-026   
     length 1.39937   
     axis -6.29373e-015 90 90   XYZ
    dof ry
    limits (-180.0 0.0)
 end
  begin
     id 21 
     name lhand
     direction 1 -4.48967e-011 2.29886e-026   
     length 0.573398   
     axis -1.46689e-014 90 90   XYZ
    dof rx rz
    limits (-90.0 90.0)
           (-45.0 45.0)
  end
  begin
     id 22 
     name lfingers
     direction 1 -4.48955e-011 4.59726e-026   
     length 0.462289   
     axis -2.93383e-014 90 90   XYZ
    dof rx
    limits (0.0 90.0)
  end
  begin
     id 23
     name lthumb
     direction 0.707107 -6.34866e-011 0.707107   
     length 0.663757   
     axis -90 45 5.69224e-014   XYZ
    dof rx rz
    limits (-45.0 45.0)
           (-45.0 45.0)
  end
  begin
     id 24 
     name rclavicle
     direction -0.981571 0.157346 0.108443   
     length 3.35257  
     axis 0 0 0   XYZ 
    dof ry rz
    limits (-10.0 20.0)
           (-20.0 0.0)
  end
  begin
     id 25 
     name rhumerus
     direction -1 -4.48967e-011 8.58308e-029  
     length 4.67018   
     axis 180 30 90   XYZ
    dof rx ry rz
    limits (-90.0 60.0)
           (-90.0 90.0)
           (-90.0 90.0)
  end
  begin
     id 26 
     name rradius
     direction -1 -4.48958e-011 4.52548e-027   
     length 2.65534   
     axis 180 30 90   XYZ
    dof rx
    limits (-10.0 170.0)
  end
  begin
     id 27 
     name rwrist
     direction -1 -4.48977e-011 1.14952e-026   
     length 1.32767   
     axis -6.29373e-015 -90 -90   XYZ
    dof ry
    limits (-180.0 0.0)
  end
  begin
     id 28
     name rhand
     direction -1 -4.48924e-011 2.29804e-026   
     length 0.594069   
     axis -1.46689e-014 -90 -90   XYZ
    dof rx rz
    limits (-90.0 90.0)
           (-45.0 45.0)
  end
  begin
     id 29
     name rfingers
     direction -1 -4.48998e-011 4.59888e-026   
     length 0.478954   
     axis -2.93383e-014 -90 -90   XYZ
    dof rx
    limits (0.0 90.0)
  end
  begin
     id 30
     name rthumb
     direction -0.707107 -6.34933e-011 0.707107   
     length 0.687685   
     axis -90 -45 -5.69224e-014   XYZ
    dof rx rz
    limits (-45.0 45.0)
           (-45.0 45.0)
  end
:hierarchy
  begin
    root lhipjoint rhipjoint lowerback
    lhipjoint lfemur
    lfemur ltibia
    ltibia lfoot
    lfoot ltoes
    rhipjoint rfemur
    rfemur rtibia
    rtibia rfoot
    rfoot rtoes
    lowerback upperback
    upperback thorax
    thorax lowerneck lclavicle rclavicle
    lowerneck upperneck
    upperneck head
    lclavicle lhumerus
    lhumerus lradius
    lradius lwrist
    lwrist lhand lthumb
    lhand lfingers
    rclavicle rhumerus
    rhumerus rradius
    rradius rwrist
    rwrist rhand rthumb
    rhand rfingers
  end

#!OML:ASF E:\pregnant2\Project 1\Capture day 1\Session 1\pregnant2.ASF
:FULLY-SPECIFIED
:DEGREES
1
root 7.36829 16.9872 17.0522 -151.344 13.6808 178.259
lowerback -19.8868 -4.18043 -0.377077
upperback -14.7155 -2.40148 1.24895
thorax -4.81817 0.213986 1.06999
lowerneck -6.61351 -14.0476 -17.4073
upperneck 32.8384 -16.6423 4.89365
head 14.4357 -8.05403 2.40971
rclavicle -4.34841e-014 -3.08116e-014
rhumerus -105.602 28.0768 -131.696
rradius 104.427
rwrist -58.3546
rhand -30.6193 -86.0188
rfingers 7.12502
rthumb 176.084 -64.0374
lclavicle -4.34841e-014 -3.08116e-014
lhumerus -105.035 -27.7009 133.331
lradius 101.519
lwrist 79.1572
lhand -28.6128 71.32
lfingers 7.12502
lthumb 178.022 78.7094
rfemur -29.9651 5.57269 18.9742
rtibia 41.7718
rfoot -13.9214 -8.69639
rtoes -14.635
lfemur -51.7752 -9.92483 -18.5144
ltibia 29.598
lfoot -3.97402 15.0909
ltoes -8.79413
2
root 7.34967 16.9946 16.961 -151.445 13.7865 178.13
lowerback -19.8386 -4.09918 -0.500416
upperback -14.6656 -2.29598 1.16119
thorax -4.78462 0.263599 1.06283
lowerneck -7.04476 -13.8322 -16.9313
upperneck 33.6783 -16.0456 4.23271
head 14.7067 -7.76881 2.17264
rclavicle -5.08889e-014 -1.72943e-014
rhumerus -105.511 27.9462 -131.651
rradius 104.325
rwrist -58.3197
rhand -30.9429 -85.294
rfingers 7.12502
rthumb 175.772 -64.7682
lclavicle -5.08889e-014 -1.72943e-014
lhumerus -105.048 -27.9222 133.362
lradius 101.504
lwrist 79.1438
lhand -28.5795 71.2991
lfingers 7.12502
lthumb 178.054 78.73
rfemur -30.8405 4.63305 18.8856
rtibia 43.7599
rfoot -12.4712 -7.88426
rtoes -13.5087
lfemur -51.2927 -10.121 -18.7868
ltibia 29.4826
lfoot -4.25707 15.2947
ltoes -8.72958
3
root 7.33214 17.0026 16.8722 -151.536 13.8964 177.981
lowerback -19.7759 -4.02737 -0.66916
upperback -14.6222 -2.19528 1.06952
thorax -4.7636 0.314816 1.07639
lowerneck -7.49113 -13.6147 -16.428
upperneck 34.5312 -15.4527 3.61814
head 15.0039 -7.47475 1.94532
rclavicle -7.45443e-017 -9.34288e-015
rhumerus -105.363 27.8556 -131.537
rradius 104.317
rwrist -58.2792
rhand -30.9492 -84.9803
rfingers 7.12502
rthumb 175.766 -65.082
lclavicle -7.45443e-017 -9.34288e-015
lhumerus -105.073 -28.1618 133.41
lradius 101.489
lwrist 79.1254
lhand -28.5271 71.2519
lfingers 7.12502
lthumb 178.105 78.7767
rfemur -31.788 3.8088 18.7646
rtibia 45.7704
rfoot -10.9025 -7.3558
rtoes -12.7116
lfemur -50.8068 -10.1815 -19.1726
ltibia 29.3312
lfoot -4.55336 15.3251
ltoes -8.63895
4
root 7.31681 17.0102 16.7856 -151.628 14.0148 177.846
lowerback -19.7434 -3.95089 -0.851272
upperback -14.5319 -2.09892 0.977549
thorax -4.67372 0.358581 1.09656
lowerneck -7.97524 -13.3861 -15.8642
upperneck 35.3739 -14.8689 3.07665
head 15.3208 -7.16727 1.73208
rclavicle 3.62782e-015 9.14409e-015
rhumerus -105.186 27.7412 -131.451
rradius 104.236
rwrist -58.0944
rhand -31.2075 -84.5403
rfingers 7.12502
rthumb 175.516 -65.5272
lclavicle 3.62782e-015 9.14409e-015
lhumerus -105.078 -28.4184 133.456
lradius 101.505
lwrist 79.1165
lhand -28.5024 71.2121
lfingers 7.12502
lthumb 178.129 78.8163
rfemur -32.8158 3.16989 18.6379
rtibia 47.7073
rfoot -9.10211 -7.23229
rtoes -11.2969
lfemur -50.306 -10.0367 -19.684
ltibia 29.2012
lfoot -4.92241 15.1931
ltoes -8.70995
5
root 7.30111 17.0149 16.6992 -151.705 14.1207 177.722
lowerback -19.7114 -3.88995 -1.02141
upperback -14.4686 -2.01581 0.907711
thorax -4.61441 0.399886 1.1314
lowerneck -8.39676 -13.1448 -15.3051
upperneck 36.1751 -14.2568 2.51266
head 15.6144 -6.85254 1.51656
rclavicle 1.04859e-014 1.78906e-014
rhumerus -105.074 27.637 -131.382
rradius 104.153
rwrist -57.9677
rhand -31.4906 -83.8886
rfingers 7.12502
rthumb 175.243 -66.1848
lclavicle 1.04859e-014 1.78906e-014
lhumerus -105.077 -28.6305 133.505
lradius 101.502
lwrist 79.11
lhand -28.4765 71.1802
lfingers 7.12502
lthumb 178.154 78.848
rfemur -33.8158 2.50984 18.5283
rtibia 49.6049
rfoot -7.31426 -7.05761
rtoes -9.86092
lfemur -49.8413 -9.97123 -20.117
ltibia 29.0799
lfoot -5.25946 15.1356
ltoes -8.73265
6
root 7.28611 17.0188 16.6141 -151.77 14.2147 177.61
lowerback -19.6844 -3.84122 -1.19263
upperback -14.406 -1.94781 0.855806
thorax -4.55266 0.434715 1.1837
lowerneck -8.80019 -12.8918 -14.7375
upperneck 36.9463 -13.639 1.9889
head 15.9068 -6.52935 1.31569
rclavicle 9.88954e-015 3.47873e-014
rhumerus -104.966 27.5473 -131.293
rradius 104.068
rwrist -57.7966
rhand -31.709 -83.3638
rfingers 7.12502
rthumb 175.032 -66.7144
lclavicle 9.88954e-015 3.47873e-014
lhumerus -105.061 -28.8194 133.561
lradius 101.492
lwrist 79.1095
lhand -28.459 71.1561
lfingers 7.12502
lthumb 178.171 78.872
rfemur -34.8414 1.9111 18.4371
rtibia 51.4459
rfoot -5.5934 -7.02457
rtoes -8.52215
lfemur -49.401 -9.86791 -20.5523
ltibia 28.9795
lfoot -5.61041 15.0442
ltoes -8.77509
7
root 7.27177 17.0224 16.53 -151.816 14.2952 177.514
lowerback -19.6691 -3.80254 -1.35584
upperback -14.3451 -1.89238 0.819659
thorax -4.48706 0.463921 1.24628
lowerneck -9.17212 -12.6284 -14.176
upperneck 37.6718 -13.0246 1.52238
head 16.1907 -6.20205 1.13831
rclavicle 5.18083e-014 1.49089e-014
rhumerus -104.859 27.4679 -131.181
rradius 103.987
rwrist -57.6146
rhand -31.8799 -82.9402
rfingers 7.12502
rthumb 174.867 -67.142
lclavicle 5.18083e-014 1.49089e-014
lhumerus -105.035 -28.9855 133.625
lradius 101.474
lwrist 79.1119
lhand -28.4488 71.1405
lfingers 7.12502
lthumb 178.181 78.8876
rfemur -35.8864 1.37196 18.3701
rtibia 53.2156
rfoot -4.13772 -7.11507
rtoes -7.48861
lfemur -48.9937 -9.75385 -20.9663
ltibia 28.9032
lfoot -5.97245 14.9522
ltoes -8.8355
8
root 7.25802 17.0259 16.4472 -151.835 14.3608 177.44
lowerback -19.6691 -3.77076 -1.50013
upperback -14.285 -1.84701 0.796931
thorax -4.41502 0.48773 1.31086
lowerneck -9.50647 -12.3527 -13.6332
upperneck 38.3344 -12.4213 1.13572
head 16.4579 -5.87349 0.995723
rclavicle -4.48011e-014 -1.47101e-014
rhumerus -104.739 27.4059 -131.046
rradius 103.914
rwrist -57.5022
rhand -32.0597 -82.4194
rfingers 7.12502
rthumb 174.694 -67.667
lclavicle -4.48011e-014 -1.47101e-014
lhumerus -104.996 -29.1353 133.691
lradius 101.444
lwrist 79.1142
lhand -28.4486 71.1313
lfingers 7.12502
lthumb 178.181 78.8967
rfemur -36.9491 0.895899 18.3373
rtibia 54.9055
rfoot -3.12977 -7.31575
rtoes -6.89095
lfemur -48.623 -9.65286 -21.3335
ltibia 28.8354
lfoot -6.32651 14.8802
ltoes -8.90598
9
root 7.24457 17.0298 16.3654 -151.832 14.4066 177.382
lowerback -19.673 -3.74711 -1.62893
upperback -14.2271 -1.81332 0.787642
thorax -4.34373 0.505543 1.37928
lowerneck -9.80775 -12.0684 -13.1144
upperneck 38.929 -11.8366 0.828838
head 16.7055 -5.54816 0.88786
rclavicle 2.19409e-014 7.7526e-015
rhumerus -104.585 27.3669 -130.851
rradius 103.87
rwrist -57.393
rhand -32.0578 -82.2803
rfingers 7.12502
rthumb 174.695 -67.8061
lclavicle 2.19409e-014 7.7526e-015
lhumerus -104.948 -29.2667 133.765
lradius 101.4
lwrist 79.12
lhand -28.4546 71.1255
lfingers 7.12502
lthumb 178.175 78.9025
rfemur -38.0205 0.481079 18.3364
rtibia 56.5039
rfoot -2.66004 -7.6298
rtoes -6.64862
lfemur -48.2823 -9.58012 -21.6542
ltibia 28.7728
lfoot -6.67276 14.8317
ltoes -8.96869
